<mxfile host="app.diagrams.net" agent="Mozilla/5.0 (Macintosh; Intel Mac OS X 10_15_7) AppleWebKit/537.36 (KHTML, like Gecko) Chrome/126.0.0.0 Safari/537.36" version="24.7.6">
  <diagram name="Page-1" id="2xl7nEOlKwetNAwT9VZm">
    <mxGraphModel dx="1194" dy="1085" grid="0" gridSize="10" guides="1" tooltips="1" connect="1" arrows="1" fold="1" page="0" pageScale="1" pageWidth="850" pageHeight="1100" math="0" shadow="0">
      <root>
        <mxCell id="0" />
        <mxCell id="1" parent="0" />
        <mxCell id="WFil_iT3Ffga0F9Wuyv7-1" value="User" style="rounded=0;whiteSpace=wrap;html=1;" vertex="1" parent="1">
          <mxGeometry x="-72" y="-45" width="120" height="60" as="geometry" />
        </mxCell>
        <mxCell id="WFil_iT3Ffga0F9Wuyv7-2" value="Frontend" style="rounded=0;whiteSpace=wrap;html=1;" vertex="1" parent="1">
          <mxGeometry x="136" y="-45" width="120" height="60" as="geometry" />
        </mxCell>
        <mxCell id="WFil_iT3Ffga0F9Wuyv7-3" value="Backend" style="rounded=0;whiteSpace=wrap;html=1;" vertex="1" parent="1">
          <mxGeometry x="337" y="-47" width="120" height="60" as="geometry" />
        </mxCell>
        <mxCell id="WFil_iT3Ffga0F9Wuyv7-4" value="" style="endArrow=none;dashed=1;html=1;rounded=0;entryX=0.5;entryY=1;entryDx=0;entryDy=0;" edge="1" parent="1" source="WFil_iT3Ffga0F9Wuyv7-16" target="WFil_iT3Ffga0F9Wuyv7-1">
          <mxGeometry width="50" height="50" relative="1" as="geometry">
            <mxPoint x="-7" y="436" as="sourcePoint" />
            <mxPoint x="188" y="136" as="targetPoint" />
          </mxGeometry>
        </mxCell>
        <mxCell id="WFil_iT3Ffga0F9Wuyv7-5" value="" style="endArrow=none;dashed=1;html=1;rounded=0;entryX=0.5;entryY=1;entryDx=0;entryDy=0;" edge="1" parent="1" source="WFil_iT3Ffga0F9Wuyv7-7" target="WFil_iT3Ffga0F9Wuyv7-2">
          <mxGeometry width="50" height="50" relative="1" as="geometry">
            <mxPoint x="201" y="433" as="sourcePoint" />
            <mxPoint x="-2" y="25" as="targetPoint" />
          </mxGeometry>
        </mxCell>
        <mxCell id="WFil_iT3Ffga0F9Wuyv7-6" value="" style="endArrow=none;dashed=1;html=1;rounded=0;entryX=0.5;entryY=1;entryDx=0;entryDy=0;" edge="1" parent="1" source="WFil_iT3Ffga0F9Wuyv7-19" target="WFil_iT3Ffga0F9Wuyv7-3">
          <mxGeometry width="50" height="50" relative="1" as="geometry">
            <mxPoint x="403" y="433" as="sourcePoint" />
            <mxPoint x="206" y="25" as="targetPoint" />
          </mxGeometry>
        </mxCell>
        <mxCell id="WFil_iT3Ffga0F9Wuyv7-8" value="" style="endArrow=none;dashed=1;html=1;rounded=0;entryX=0.5;entryY=1;entryDx=0;entryDy=0;" edge="1" parent="1" source="WFil_iT3Ffga0F9Wuyv7-40" target="WFil_iT3Ffga0F9Wuyv7-7">
          <mxGeometry width="50" height="50" relative="1" as="geometry">
            <mxPoint x="201" y="433" as="sourcePoint" />
            <mxPoint x="196" y="15" as="targetPoint" />
          </mxGeometry>
        </mxCell>
        <mxCell id="WFil_iT3Ffga0F9Wuyv7-7" value="" style="rounded=1;whiteSpace=wrap;html=1;" vertex="1" parent="1">
          <mxGeometry x="182.5" y="43" width="27" height="43" as="geometry" />
        </mxCell>
        <mxCell id="WFil_iT3Ffga0F9Wuyv7-10" value="Request Website" style="text;html=1;align=center;verticalAlign=middle;whiteSpace=wrap;rounded=0;" vertex="1" parent="1">
          <mxGeometry x="62" y="7" width="60" height="30" as="geometry" />
        </mxCell>
        <mxCell id="WFil_iT3Ffga0F9Wuyv7-12" value="" style="endArrow=classic;html=1;rounded=0;entryX=0;entryY=0;entryDx=0;entryDy=0;" edge="1" parent="1" target="WFil_iT3Ffga0F9Wuyv7-7">
          <mxGeometry width="50" height="50" relative="1" as="geometry">
            <mxPoint x="-2" y="40" as="sourcePoint" />
            <mxPoint x="308" y="223" as="targetPoint" />
          </mxGeometry>
        </mxCell>
        <mxCell id="WFil_iT3Ffga0F9Wuyv7-13" value="" style="endArrow=classic;html=1;rounded=0;exitX=0;exitY=1;exitDx=0;exitDy=0;entryX=1;entryY=0;entryDx=0;entryDy=0;" edge="1" parent="1" source="WFil_iT3Ffga0F9Wuyv7-7" target="WFil_iT3Ffga0F9Wuyv7-16">
          <mxGeometry width="50" height="50" relative="1" as="geometry">
            <mxPoint x="1" y="48" as="sourcePoint" />
            <mxPoint x="8" y="85" as="targetPoint" />
            <Array as="points" />
          </mxGeometry>
        </mxCell>
        <mxCell id="WFil_iT3Ffga0F9Wuyv7-17" value="" style="endArrow=none;dashed=1;html=1;rounded=0;entryX=0.5;entryY=1;entryDx=0;entryDy=0;" edge="1" parent="1" target="WFil_iT3Ffga0F9Wuyv7-16">
          <mxGeometry width="50" height="50" relative="1" as="geometry">
            <mxPoint x="-7" y="436" as="sourcePoint" />
            <mxPoint x="-12" y="15" as="targetPoint" />
          </mxGeometry>
        </mxCell>
        <mxCell id="WFil_iT3Ffga0F9Wuyv7-16" value="" style="rounded=1;whiteSpace=wrap;html=1;" vertex="1" parent="1">
          <mxGeometry x="-27" y="86" width="30" height="58" as="geometry" />
        </mxCell>
        <mxCell id="WFil_iT3Ffga0F9Wuyv7-18" value="Send Website Landing Page" style="text;html=1;align=center;verticalAlign=middle;whiteSpace=wrap;rounded=0;" vertex="1" parent="1">
          <mxGeometry x="46" y="56" width="106" height="30" as="geometry" />
        </mxCell>
        <mxCell id="WFil_iT3Ffga0F9Wuyv7-23" value="Database" style="rounded=0;whiteSpace=wrap;html=1;" vertex="1" parent="1">
          <mxGeometry x="542" y="-47" width="120" height="60" as="geometry" />
        </mxCell>
        <mxCell id="WFil_iT3Ffga0F9Wuyv7-24" value="" style="endArrow=none;dashed=1;html=1;rounded=0;entryX=0.5;entryY=1;entryDx=0;entryDy=0;" edge="1" parent="1" target="WFil_iT3Ffga0F9Wuyv7-23">
          <mxGeometry width="50" height="50" relative="1" as="geometry">
            <mxPoint x="608" y="433" as="sourcePoint" />
            <mxPoint x="411" y="25" as="targetPoint" />
          </mxGeometry>
        </mxCell>
        <mxCell id="WFil_iT3Ffga0F9Wuyv7-25" value="" style="endArrow=none;dashed=1;html=1;rounded=0;entryX=0.5;entryY=1;entryDx=0;entryDy=0;" edge="1" parent="1" target="WFil_iT3Ffga0F9Wuyv7-19">
          <mxGeometry width="50" height="50" relative="1" as="geometry">
            <mxPoint x="403" y="433" as="sourcePoint" />
            <mxPoint x="397" y="13" as="targetPoint" />
          </mxGeometry>
        </mxCell>
        <mxCell id="WFil_iT3Ffga0F9Wuyv7-19" value="" style="rounded=1;whiteSpace=wrap;html=1;" vertex="1" parent="1">
          <mxGeometry x="384" y="146" width="30" height="116" as="geometry" />
        </mxCell>
        <mxCell id="WFil_iT3Ffga0F9Wuyv7-26" value="" style="endArrow=classic;html=1;rounded=0;exitX=1;exitY=1;exitDx=0;exitDy=0;entryX=0;entryY=0;entryDx=0;entryDy=0;" edge="1" parent="1" source="WFil_iT3Ffga0F9Wuyv7-16" target="WFil_iT3Ffga0F9Wuyv7-19">
          <mxGeometry width="50" height="50" relative="1" as="geometry">
            <mxPoint x="117" y="273" as="sourcePoint" />
            <mxPoint x="167" y="223" as="targetPoint" />
          </mxGeometry>
        </mxCell>
        <mxCell id="WFil_iT3Ffga0F9Wuyv7-27" value="Enter Login Details" style="text;html=1;align=center;verticalAlign=middle;whiteSpace=wrap;rounded=0;" vertex="1" parent="1">
          <mxGeometry x="58" y="114" width="116" height="30" as="geometry" />
        </mxCell>
        <mxCell id="WFil_iT3Ffga0F9Wuyv7-29" value="" style="rounded=1;whiteSpace=wrap;html=1;" vertex="1" parent="1">
          <mxGeometry x="590" y="146" width="30" height="116" as="geometry" />
        </mxCell>
        <mxCell id="WFil_iT3Ffga0F9Wuyv7-30" value="" style="endArrow=classic;html=1;rounded=0;exitX=1;exitY=0;exitDx=0;exitDy=0;entryX=0;entryY=0;entryDx=0;entryDy=0;" edge="1" parent="1" source="WFil_iT3Ffga0F9Wuyv7-19" target="WFil_iT3Ffga0F9Wuyv7-29">
          <mxGeometry width="50" height="50" relative="1" as="geometry">
            <mxPoint x="477" y="132" as="sourcePoint" />
            <mxPoint x="527" y="82" as="targetPoint" />
          </mxGeometry>
        </mxCell>
        <mxCell id="WFil_iT3Ffga0F9Wuyv7-32" value="Validate Credentials&lt;div&gt;&lt;br&gt;&lt;/div&gt;" style="text;strokeColor=none;fillColor=none;align=left;verticalAlign=middle;spacingLeft=4;spacingRight=4;overflow=hidden;points=[[0,0.5],[1,0.5]];portConstraint=eastwest;rotatable=0;whiteSpace=wrap;html=1;" vertex="1" parent="1">
          <mxGeometry x="439" y="122" width="121" height="22" as="geometry" />
        </mxCell>
        <mxCell id="WFil_iT3Ffga0F9Wuyv7-34" value="" style="endArrow=classic;html=1;rounded=0;exitX=1;exitY=0.25;exitDx=0;exitDy=0;entryX=0;entryY=0.25;entryDx=0;entryDy=0;" edge="1" parent="1" source="WFil_iT3Ffga0F9Wuyv7-19" target="WFil_iT3Ffga0F9Wuyv7-29">
          <mxGeometry width="50" height="50" relative="1" as="geometry">
            <mxPoint x="416" y="174" as="sourcePoint" />
            <mxPoint x="592" y="174" as="targetPoint" />
          </mxGeometry>
        </mxCell>
        <mxCell id="WFil_iT3Ffga0F9Wuyv7-35" value="&lt;div&gt;Retrieve User Data&lt;/div&gt;" style="text;strokeColor=none;fillColor=none;align=left;verticalAlign=middle;spacingLeft=4;spacingRight=4;overflow=hidden;points=[[0,0.5],[1,0.5]];portConstraint=eastwest;rotatable=0;whiteSpace=wrap;html=1;" vertex="1" parent="1">
          <mxGeometry x="441" y="150" width="121" height="22" as="geometry" />
        </mxCell>
        <mxCell id="WFil_iT3Ffga0F9Wuyv7-36" value="" style="endArrow=classic;html=1;rounded=0;exitX=0;exitY=0.5;exitDx=0;exitDy=0;entryX=1;entryY=0.5;entryDx=0;entryDy=0;" edge="1" parent="1" source="WFil_iT3Ffga0F9Wuyv7-29" target="WFil_iT3Ffga0F9Wuyv7-19">
          <mxGeometry width="50" height="50" relative="1" as="geometry">
            <mxPoint x="477" y="132" as="sourcePoint" />
            <mxPoint x="527" y="82" as="targetPoint" />
          </mxGeometry>
        </mxCell>
        <mxCell id="WFil_iT3Ffga0F9Wuyv7-37" value="" style="endArrow=classic;html=1;rounded=0;exitX=0;exitY=0.75;exitDx=0;exitDy=0;entryX=1;entryY=0.75;entryDx=0;entryDy=0;" edge="1" parent="1" source="WFil_iT3Ffga0F9Wuyv7-29" target="WFil_iT3Ffga0F9Wuyv7-19">
          <mxGeometry width="50" height="50" relative="1" as="geometry">
            <mxPoint x="587.5" y="249" as="sourcePoint" />
            <mxPoint x="411.5" y="249" as="targetPoint" />
          </mxGeometry>
        </mxCell>
        <mxCell id="WFil_iT3Ffga0F9Wuyv7-38" value="Return User Data" style="text;html=1;align=center;verticalAlign=middle;whiteSpace=wrap;rounded=0;" vertex="1" parent="1">
          <mxGeometry x="441" y="176" width="120" height="30" as="geometry" />
        </mxCell>
        <mxCell id="WFil_iT3Ffga0F9Wuyv7-39" value="Authentication success" style="text;html=1;align=center;verticalAlign=middle;whiteSpace=wrap;rounded=0;" vertex="1" parent="1">
          <mxGeometry x="446" y="206" width="120" height="30" as="geometry" />
        </mxCell>
        <mxCell id="WFil_iT3Ffga0F9Wuyv7-41" value="" style="endArrow=none;dashed=1;html=1;rounded=0;entryX=0.5;entryY=1;entryDx=0;entryDy=0;" edge="1" parent="1" target="WFil_iT3Ffga0F9Wuyv7-40">
          <mxGeometry width="50" height="50" relative="1" as="geometry">
            <mxPoint x="201" y="433" as="sourcePoint" />
            <mxPoint x="196" y="86" as="targetPoint" />
          </mxGeometry>
        </mxCell>
        <mxCell id="WFil_iT3Ffga0F9Wuyv7-40" value="" style="rounded=1;whiteSpace=wrap;html=1;" vertex="1" parent="1">
          <mxGeometry x="182.5" y="262" width="31" height="21" as="geometry" />
        </mxCell>
        <mxCell id="WFil_iT3Ffga0F9Wuyv7-42" value="" style="endArrow=classic;html=1;rounded=0;exitX=0;exitY=1;exitDx=0;exitDy=0;entryX=1;entryY=0;entryDx=0;entryDy=0;" edge="1" parent="1" source="WFil_iT3Ffga0F9Wuyv7-19" target="WFil_iT3Ffga0F9Wuyv7-40">
          <mxGeometry width="50" height="50" relative="1" as="geometry">
            <mxPoint x="237" y="287" as="sourcePoint" />
            <mxPoint x="287" y="237" as="targetPoint" />
          </mxGeometry>
        </mxCell>
        <mxCell id="WFil_iT3Ffga0F9Wuyv7-43" value="Send Home Page" style="text;html=1;align=center;verticalAlign=middle;whiteSpace=wrap;rounded=0;" vertex="1" parent="1">
          <mxGeometry x="250" y="232" width="87" height="30" as="geometry" />
        </mxCell>
        <mxCell id="WFil_iT3Ffga0F9Wuyv7-44" value="" style="endArrow=classic;html=1;rounded=0;exitX=0;exitY=1;exitDx=0;exitDy=0;" edge="1" parent="1" source="WFil_iT3Ffga0F9Wuyv7-40">
          <mxGeometry width="50" height="50" relative="1" as="geometry">
            <mxPoint x="77" y="210" as="sourcePoint" />
            <mxPoint x="13" y="283" as="targetPoint" />
          </mxGeometry>
        </mxCell>
        <mxCell id="WFil_iT3Ffga0F9Wuyv7-45" value="Display Page" style="text;html=1;align=center;verticalAlign=middle;whiteSpace=wrap;rounded=0;" vertex="1" parent="1">
          <mxGeometry x="62" y="253" width="60" height="30" as="geometry" />
        </mxCell>
      </root>
    </mxGraphModel>
  </diagram>
</mxfile>
